<svg xmlns="http://www.w3.org/2000/svg" xmlns:xlink="http://www.w3.org/1999/xlink" width="38.016" height="30.004" viewBox="0 0 38.016 30.004">
  <defs>
    <filter id="_211614_down_b_arrow_icon" x="0" y="0" width="38.016" height="30.004" filterUnits="userSpaceOnUse">
      <feOffset dy="3" input="SourceAlpha"/>
      <feGaussianBlur stdDeviation="3" result="blur"/>
      <feFlood flood-opacity="0.161"/>
      <feComposite operator="in" in2="blur"/>
      <feComposite in="SourceGraphic"/>
    </filter>
  </defs>
  <g transform="matrix(1, 0, 0, 1, 0, 0)" filter="url(#_211614_down_b_arrow_icon)">
    <path id="_211614_down_b_arrow_icon-2" data-name="211614_down_b_arrow_icon" d="M.181,1.545l.113.131L8.8,11.466A1.583,1.583,0,0,0,10,12a1.6,1.6,0,0,0,1.2-.538L19.7,1.7l.144-.163a.966.966,0,0,0,.169-.544A1.014,1.014,0,0,0,18.978,0H1.038A1.014,1.014,0,0,0,0,.988.955.955,0,0,0,.181,1.545Z" transform="translate(9 6)" fill="#272c32"/>
  </g>
</svg>
