<svg xmlns="http://www.w3.org/2000/svg" width="14.08" height="16.145" viewBox="0 0 14.08 16.145">
  <g id="_7148706_login_enter_icon_1_" data-name="7148706_login_enter_icon (1)" transform="translate(-10.462 20.403) rotate(-90)">
    <path id="Path_79" data-name="Path 79" d="M14.82,18.115H1.63a.933.933,0,0,1,0-1.865H14.82a.933.933,0,1,1,0,1.865Z" transform="translate(3.562 0.32)" fill="#f5f5f5"/>
    <path id="Path_80" data-name="Path 80" d="M12.968,22.646a.985.985,0,0,1-.7-1.684l5.03-5.03a.467.467,0,0,0,0-.661l-5.03-5.023a.985.985,0,1,1,1.392-1.393l5.029,5.027a2.442,2.442,0,0,1,0,3.446l-5.03,5.03A.982.982,0,0,1,12.968,22.646Z" transform="translate(1 1.896)" fill="#f5f5f5"/>
  </g>
</svg>
