<svg xmlns="http://www.w3.org/2000/svg" xmlns:xlink="http://www.w3.org/1999/xlink" width="53.913" height="39.537" viewBox="0 0 53.913 39.537">
  <defs>
    <filter id="_211614_down_b_arrow_icon" x="0" y="0" width="53.913" height="39.537" filterUnits="userSpaceOnUse">
      <feOffset dy="3" input="SourceAlpha"/>
      <feGaussianBlur stdDeviation="3" result="blur"/>
      <feFlood flood-opacity="0.161"/>
      <feComposite operator="in" in2="blur"/>
      <feComposite in="SourceGraphic"/>
    </filter>
  </defs>
  <g transform="matrix(1, 0, 0, 1, 0, 0)" filter="url(#_211614_down_b_arrow_icon)">
    <path id="_211614_down_b_arrow_icon-2" data-name="211614_down_b_arrow_icon" d="M.325,2.772l.2.236L15.791,20.572a2.84,2.84,0,0,0,2.155.965,2.879,2.879,0,0,0,2.155-.965L35.352,3.041l.258-.292a1.733,1.733,0,0,0,.3-.976A1.819,1.819,0,0,0,34.05,0H1.863A1.819,1.819,0,0,0,0,1.773,1.714,1.714,0,0,0,.325,2.772Z" transform="translate(9 6)" fill="#858585" opacity="0.4"/>
  </g>
</svg>
