<svg xmlns="http://www.w3.org/2000/svg" width="37" height="37" viewBox="0 0 37 37">
  <g id="Next" transform="translate(36.5 36.5) rotate(180)">
    <path id="_211614_down_b_arrow_icon" data-name="211614_down_b_arrow_icon" d="M.181,1.546l.113.131,8.511,9.794a1.583,1.583,0,0,0,1.2.538,1.605,1.605,0,0,0,1.2-.538l8.5-9.775.144-.163a.967.967,0,0,0,.169-.544A1.015,1.015,0,0,0,18.987,0H1.039A1.015,1.015,0,0,0,0,.989.956.956,0,0,0,.181,1.546Z" transform="translate(13.995 28.013) rotate(-90)" fill="#1e1e1e" opacity="0.542"/>
    <path id="Path_69" data-name="Path 69" d="M18,0A18,18,0,1,1,0,18,18,18,0,0,1,18,0Z" fill="none" stroke="#1e1e1e" stroke-width="1" opacity="0.542"/>
  </g>
</svg>
