<svg id="Facebook" xmlns="http://www.w3.org/2000/svg" width="21.469" height="21.483" viewBox="0 0 21.469 21.483">
  <path id="_2515845_black_and_white_dark_grey_facebook_icon" data-name="2515845_black and white_dark grey_facebook_icon" d="M36.148,19.577a6.577,6.577,0,0,0-.106-1.154,4.7,4.7,0,0,0-.436-1.338,4.646,4.646,0,0,0-.894-1.192,4.432,4.432,0,0,0-1.951-1.113,7.82,7.82,0,0,0-2.062-.22.021.021,0,0,1,0-.01H20.169v.01a11.24,11.24,0,0,0-1.182.053,5.632,5.632,0,0,0-1.262.283,4.576,4.576,0,0,0-2.8,3.058A7.886,7.886,0,0,0,14.707,20L14.7,30.57h0A10.145,10.145,0,0,0,14.8,32a4.955,4.955,0,0,0,.44,1.446,4.624,4.624,0,0,0,1.291,1.562,4.193,4.193,0,0,0,1.292.7,6.993,6.993,0,0,0,2.124.312c.451,0,.9.014,1.351.012,1.617-.007,3.234,0,4.851,0V28.86H23.733V25.976h2.413V23.909s-.174-3.433,3.209-3.707h2.562v2.612H30.051a1.183,1.183,0,0,0-.922.9v2.214h2.662l-.3,2.761H29.081V36.03q1.016-.005,2.032-.017a7.722,7.722,0,0,0,1.288-.137,4.362,4.362,0,0,0,2.157-1.05,4.473,4.473,0,0,0,1.425-2.376,8.664,8.664,0,0,0,.186-1.88v-.126C36.169,30.395,36.15,19.718,36.148,19.577Z" transform="translate(-14.7 -14.55)" fill="#f8f8f8"/>
</svg>
