<svg xmlns="http://www.w3.org/2000/svg" width="17.729" height="17.729" viewBox="0 0 17.729 17.729">
  <path id="_5402388_information_about_support_accessibility_info_icon" data-name="5402388_information_about_support_accessibility_info_icon" d="M10.864,2a8.864,8.864,0,1,0,8.864,8.864A8.864,8.864,0,0,0,10.864,2Zm-.443,2.659a1.33,1.33,0,1,1-1.33,1.33A1.33,1.33,0,0,1,10.421,4.659Zm2.216,11.524h-.886A1.773,1.773,0,0,1,9.978,14.41V10.864a.886.886,0,0,1,0-1.773h.886a.886.886,0,0,1,.886.886V14.41h.886a.886.886,0,0,1,0,1.773Z" transform="translate(-2 -2)" fill="#272c32"/>
</svg>
