<svg id="_3669473_library_books_ic_icon" data-name="3669473_library_books_ic_icon" xmlns="http://www.w3.org/2000/svg" width="19.088" height="19.088" viewBox="0 0 19.088 19.088">
  <path id="Path_193" data-name="Path 193" d="M0,0H19.088V19.088H0Z" fill="none"/>
  <path id="Path_194" data-name="Path 194" d="M5.591,7.181H4V18.316a1.59,1.59,0,0,0,1.591,1.591H16.725V18.316H5.591ZM18.316,4H8.772A1.59,1.59,0,0,0,7.181,5.591v9.544a1.59,1.59,0,0,0,1.591,1.591h9.544a1.59,1.59,0,0,0,1.591-1.591V5.591A1.59,1.59,0,0,0,18.316,4Zm-.8,7.158H9.567V9.567h7.953Zm-3.181,3.181H9.567V12.749h4.772Zm3.181-6.363H9.567V6.386h7.953Z" transform="translate(-2.409 -2.409)"/>
</svg>
