<svg xmlns="http://www.w3.org/2000/svg" width="16.904" height="15.777" viewBox="0 0 16.904 15.777">
  <g id="News__x26__Events_1_" transform="translate(-1 -2)">
    <path id="Path_169" data-name="Path 169" d="M4.409,20.579A1.41,1.41,0,0,1,3,19.17V11.282A.282.282,0,0,1,3.282,11H4.409a.282.282,0,0,1,0,.563H3.563V19.17a.846.846,0,0,0,.845.845.282.282,0,1,1,0,.563Z" transform="translate(-0.873 -3.929)" fill="#263238"/>
    <path id="Path_170" data-name="Path 170" d="M5.282,17.086a.282.282,0,1,1,0-.563.846.846,0,0,0,.845-.845V3.282a.282.282,0,1,1,.563,0v12.4A1.41,1.41,0,0,1,5.282,17.086Z" transform="translate(-1.746 -0.437)" fill="#263238"/>
    <path id="Path_171" data-name="Path 171" d="M3.536,22.142A2.539,2.539,0,0,1,1,19.607V12.282a.282.282,0,0,1,.563,0v7.325a1.974,1.974,0,0,0,1.972,1.972.282.282,0,1,1,0,.563Z" transform="translate(0 -4.365)" fill="#263238"/>
    <path id="Path_172" data-name="Path 172" d="M17.114,17.777H5.282a.282.282,0,1,1,0-.563,1.974,1.974,0,0,0,1.972-1.972V2.282A.282.282,0,0,1,7.536,2H19.368a.282.282,0,0,1,.282.282v12.96A2.539,2.539,0,0,1,17.114,17.777Zm-10.24-.563h10.24a1.974,1.974,0,0,0,1.972-1.972V2.563H7.817V15.241A2.533,2.533,0,0,1,6.874,17.213Z" transform="translate(-1.746)" fill="#263238"/>
    <g id="Group_110" data-name="Group 110" transform="translate(6.635 3.689)">
      <path id="Path_173" data-name="Path 173" d="M23.125,7.817a.281.281,0,0,1-.264-.183L22.016,5.38a.282.282,0,1,1,.527-.2l.5,1.33L23.3,5.225a.282.282,0,1,1,.552.111L23.4,7.59a.281.281,0,0,1-.254.225Z" transform="translate(-15.801 -4.998)" fill="#263238"/>
      <path id="Path_174" data-name="Path 174" d="M20.431,7.817h-.023a.282.282,0,0,1-.254-.225l-.449-2.254a.282.282,0,1,1,.553-.11l.256,1.285.5-1.329a.282.282,0,1,1,.527.2l-.845,2.254A.28.28,0,0,1,20.431,7.817Z" transform="translate(-14.798 -4.999)" fill="#263238"/>
      <path id="Path_175" data-name="Path 175" d="M12.972,7.817a.282.282,0,0,1-.234-.125L11.563,5.952V7.536a.282.282,0,1,1-.563,0V5.282A.282.282,0,0,1,11.282,5h.17a.283.283,0,0,1,.234.125l1.005,1.49V5.282a.282.282,0,1,1,.563,0V7.536a.283.283,0,0,1-.2.27A.293.293,0,0,1,12.972,7.817Z" transform="translate(-11 -4.999)" fill="#263238"/>
      <path id="Path_176" data-name="Path 176" d="M17.409,7.817H16.282A.282.282,0,0,1,16,7.536V5.282A.282.282,0,0,1,16.282,5h1.127a.282.282,0,1,1,0,.563h-.845v1.69h.845a.282.282,0,1,1,0,.563Z" transform="translate(-13.183 -4.999)" fill="#263238"/>
      <g id="Group_109" data-name="Group 109" transform="translate(2.817 1.128)">
        <path id="Path_177" data-name="Path 177" d="M17.127,7.563h-.845a.282.282,0,1,1,0-.563h.845a.282.282,0,0,1,0,.563Z" transform="translate(-16 -7)" fill="#263238"/>
      </g>
      <path id="Path_178" data-name="Path 178" d="M26.693,7.817a1.069,1.069,0,0,1-1.022-.707A.282.282,0,0,1,26.2,6.9a.507.507,0,0,0,.5.349.313.313,0,0,0,.3-.321c0-.112-.1-.176-.388-.313a1.588,1.588,0,0,1-.544-.354.79.79,0,0,1-.135-.833A.773.773,0,0,1,26.674,5a.969.969,0,0,1,.715.283.282.282,0,0,1-.417.379.435.435,0,0,0-.3-.1c-.086,0-.2.017-.235.1a.224.224,0,0,0,.045.228,1.2,1.2,0,0,0,.36.216c.3.141.712.334.712.823A.876.876,0,0,1,26.693,7.817Z" transform="translate(-17.396 -4.999)" fill="#263238"/>
    </g>
    <g id="Group_132" data-name="Group 132" transform="translate(7.198 8.198)">
      <g id="Group_113" data-name="Group 113" transform="translate(0 6.761)">
        <g id="Group_111" data-name="Group 111" transform="translate(5.071)">
          <path id="Path_179" data-name="Path 179" d="M24.662,25.563H21.282a.282.282,0,0,1,0-.563h3.381a.282.282,0,0,1,0,.563Z" transform="translate(-21 -25)" fill="#263238"/>
        </g>
        <g id="Group_112" data-name="Group 112">
          <path id="Path_180" data-name="Path 180" d="M15.662,25.563H12.282a.282.282,0,0,1,0-.563h3.381a.282.282,0,0,1,0,.563Z" transform="translate(-12 -25)" fill="#263238"/>
        </g>
      </g>
      <g id="Group_116" data-name="Group 116" transform="translate(0 5.635)">
        <g id="Group_114" data-name="Group 114" transform="translate(5.071)">
          <path id="Path_181" data-name="Path 181" d="M24.662,23.563H21.282a.282.282,0,0,1,0-.563h3.381a.282.282,0,0,1,0,.563Z" transform="translate(-21 -23)" fill="#263238"/>
        </g>
        <g id="Group_115" data-name="Group 115">
          <path id="Path_182" data-name="Path 182" d="M15.662,23.563H12.282a.282.282,0,0,1,0-.563h3.381a.282.282,0,0,1,0,.563Z" transform="translate(-12 -23)" fill="#263238"/>
        </g>
      </g>
      <g id="Group_119" data-name="Group 119" transform="translate(0 4.508)">
        <g id="Group_117" data-name="Group 117" transform="translate(5.071)">
          <path id="Path_183" data-name="Path 183" d="M24.662,21.563H21.282a.282.282,0,0,1,0-.563h3.381a.282.282,0,1,1,0,.563Z" transform="translate(-21 -21)" fill="#263238"/>
        </g>
        <g id="Group_118" data-name="Group 118">
          <path id="Path_184" data-name="Path 184" d="M15.662,21.563H12.282a.282.282,0,0,1,0-.563h3.381a.282.282,0,0,1,0,.563Z" transform="translate(-12 -21)" fill="#263238"/>
        </g>
      </g>
      <g id="Group_122" data-name="Group 122" transform="translate(0 3.381)">
        <g id="Group_120" data-name="Group 120" transform="translate(5.071)">
          <path id="Path_185" data-name="Path 185" d="M24.662,19.563H21.282a.282.282,0,0,1,0-.563h3.381a.282.282,0,1,1,0,.563Z" transform="translate(-21 -19)" fill="#263238"/>
        </g>
        <g id="Group_121" data-name="Group 121">
          <path id="Path_186" data-name="Path 186" d="M15.662,19.563H12.282a.282.282,0,1,1,0-.563h3.381a.282.282,0,0,1,0,.563Z" transform="translate(-12 -19)" fill="#263238"/>
        </g>
      </g>
      <g id="Group_125" data-name="Group 125" transform="translate(0 2.254)">
        <g id="Group_123" data-name="Group 123" transform="translate(5.071)">
          <path id="Path_187" data-name="Path 187" d="M24.662,17.563H21.282a.282.282,0,0,1,0-.563h3.381a.282.282,0,1,1,0,.563Z" transform="translate(-21 -17)" fill="#263238"/>
        </g>
        <g id="Group_124" data-name="Group 124">
          <path id="Path_188" data-name="Path 188" d="M15.662,17.563H12.282a.282.282,0,1,1,0-.563h3.381a.282.282,0,0,1,0,.563Z" transform="translate(-12 -17)" fill="#263238"/>
        </g>
      </g>
      <g id="Group_128" data-name="Group 128" transform="translate(0 1.127)">
        <g id="Group_126" data-name="Group 126" transform="translate(5.071)">
          <path id="Path_189" data-name="Path 189" d="M24.662,15.563H21.282a.282.282,0,0,1,0-.563h3.381a.282.282,0,0,1,0,.563Z" transform="translate(-21 -15)" fill="#263238"/>
        </g>
        <g id="Group_127" data-name="Group 127">
          <path id="Path_190" data-name="Path 190" d="M15.662,15.563H12.282a.282.282,0,0,1,0-.563h3.381a.282.282,0,0,1,0,.563Z" transform="translate(-12 -15)" fill="#263238"/>
        </g>
      </g>
      <g id="Group_131" data-name="Group 131">
        <g id="Group_129" data-name="Group 129" transform="translate(5.071)">
          <path id="Path_191" data-name="Path 191" d="M24.662,13.563H21.282a.282.282,0,0,1,0-.563h3.381a.282.282,0,0,1,0,.563Z" transform="translate(-21 -13)" fill="#263238"/>
        </g>
        <g id="Group_130" data-name="Group 130">
          <path id="Path_192" data-name="Path 192" d="M15.662,13.563H12.282a.282.282,0,0,1,0-.563h3.381a.282.282,0,0,1,0,.563Z" transform="translate(-12 -13)" fill="#263238"/>
        </g>
      </g>
    </g>
  </g>
</svg>
