<svg xmlns="http://www.w3.org/2000/svg" width="16" height="20" viewBox="0 0 16 20">
  <path id="_216209_flow_children_icon" data-name="216209_flow_children_icon" d="M17,16a2.989,2.989,0,0,0-2.816,2H11a3,3,0,0,1-3-3V11.975A4.954,4.954,0,0,0,11,13h3.184a3,3,0,1,0,0-2H11A3,3,0,0,1,8,8V7.816a3,3,0,1,0-2,0V15a5.006,5.006,0,0,0,5,5h3.184A2.995,2.995,0,1,0,17,16Zm0-5a1,1,0,1,1-1,1A1,1,0,0,1,17,11ZM7,4A1,1,0,1,1,6,5,1,1,0,0,1,7,4ZM17,20a1,1,0,1,1,1-1A1,1,0,0,1,17,20Z" transform="translate(-4 -2)"/>
</svg>
