<svg id="insta" xmlns="http://www.w3.org/2000/svg" width="22" height="22" viewBox="0 0 22 22">
  <path id="Path_89" data-name="Path 89" d="M11,.162c-2.987,0-3.362.013-4.535.066a8.074,8.074,0,0,0-2.67.511A5.392,5.392,0,0,0,1.846,2.008,5.392,5.392,0,0,0,.577,3.956a8.074,8.074,0,0,0-.511,2.67C.013,7.8,0,8.174,0,11.162S.013,14.524.066,15.7a8.074,8.074,0,0,0,.511,2.67,5.392,5.392,0,0,0,1.269,1.948,5.392,5.392,0,0,0,1.948,1.269,8.075,8.075,0,0,0,2.67.511c1.173.054,1.548.066,4.535.066s3.362-.013,4.535-.066a8.074,8.074,0,0,0,2.67-.511,5.625,5.625,0,0,0,3.217-3.217,8.074,8.074,0,0,0,.511-2.67c.054-1.173.066-1.548.066-4.535s-.013-3.362-.066-4.535a8.074,8.074,0,0,0-.511-2.67,5.392,5.392,0,0,0-1.269-1.948A5.392,5.392,0,0,0,18.205.739a8.074,8.074,0,0,0-2.67-.511C14.362.174,13.987.162,11,.162Zm0,1.982c2.937,0,3.285.011,4.445.064a6.088,6.088,0,0,1,2.043.379,3.408,3.408,0,0,1,1.265.823,3.408,3.408,0,0,1,.823,1.265,6.086,6.086,0,0,1,.379,2.043c.053,1.16.064,1.508.064,4.445s-.011,3.285-.064,4.445a6.086,6.086,0,0,1-.379,2.043,3.643,3.643,0,0,1-2.088,2.088,6.086,6.086,0,0,1-2.043.379c-1.16.053-1.508.064-4.445.064s-3.285-.011-4.445-.064a6.086,6.086,0,0,1-2.043-.379,3.408,3.408,0,0,1-1.265-.823,3.408,3.408,0,0,1-.823-1.265,6.086,6.086,0,0,1-.379-2.043c-.053-1.16-.064-1.508-.064-4.445s.011-3.285.064-4.445a6.086,6.086,0,0,1,.379-2.043,3.408,3.408,0,0,1,.823-1.265,3.409,3.409,0,0,1,1.265-.823,6.088,6.088,0,0,1,2.043-.379C7.715,2.155,8.063,2.144,11,2.144Z" transform="translate(0 -0.162)" fill="#272c32"/>
  <path id="Path_90" data-name="Path 90" d="M130.314,134.224a3.748,3.748,0,1,1,3.748-3.748A3.748,3.748,0,0,1,130.314,134.224Zm0-9.523a5.774,5.774,0,1,0,5.774,5.774A5.774,5.774,0,0,0,130.314,124.7Z" transform="translate(-119.314 -119.477)" fill="#272c32"/>
  <path id="Path_91" data-name="Path 91" d="M364.51,90.078a1.289,1.289,0,1,1-1.289-1.289A1.289,1.289,0,0,1,364.51,90.078Z" transform="translate(-346.331 -84.969)" fill="#272c32"/>
</svg>
