<svg xmlns="http://www.w3.org/2000/svg" width="38.016" height="38.016" viewBox="0 0 38.016 38.016">
  <g id="Next" transform="translate(0.5 0.5)">
    <path id="_211614_down_b_arrow_icon" data-name="211614_down_b_arrow_icon" d="M.187,1.589.3,1.725l8.751,10.07a1.628,1.628,0,0,0,1.235.553,1.65,1.65,0,0,0,1.235-.553L20.269,1.744l.148-.167a.994.994,0,0,0,.174-.56A1.043,1.043,0,0,0,19.523,0H1.068A1.043,1.043,0,0,0,0,1.017.983.983,0,0,0,.187,1.589Z" transform="translate(15.18 28.804) rotate(-90)" fill="#1e1e1e" opacity="0.54"/>
    <path id="Path_69" data-name="Path 69" d="M18.508,0A18.508,18.508,0,1,1,0,18.508,18.508,18.508,0,0,1,18.508,0Z" fill="none" stroke="#1e1e1e" stroke-width="1" opacity="0.542"/>
  </g>
</svg>
