<svg xmlns="http://www.w3.org/2000/svg" width="35.052" height="35.051" viewBox="0 0 35.052 35.051">
  <g id="_352510_local_phone_icon" data-name="352510_local_phone_icon" transform="translate(7.811) rotate(16)">
    <path id="Path_61" data-name="Path 61" d="M0,0H28.338V28.338H0Z" fill="none"/>
    <path id="Path_62" data-name="Path 62" d="M10.28,15.2a17.782,17.782,0,0,0,7.781,7.775l2.6-2.6a1.185,1.185,0,0,1,1.2-.289,13.441,13.441,0,0,0,4.215.673,1.177,1.177,0,0,1,1.181,1.181v4.133a1.177,1.177,0,0,1-1.181,1.181A20.071,20.071,0,0,1,6,7.181,1.18,1.18,0,0,1,7.181,6h4.133a1.177,1.177,0,0,1,1.181,1.181,13.441,13.441,0,0,0,.673,4.215,1.185,1.185,0,0,1-.289,1.2Z" transform="translate(-2.458 -2.458)"/>
  </g>
</svg>
