<svg id="_3952175_constructing_construction_crane_engineering_project_icon" data-name="3952175_constructing_construction_crane_engineering_project_icon" xmlns="http://www.w3.org/2000/svg" width="85.168" height="85.168" viewBox="0 0 85.168 85.168">
  <g id="Layer_10" data-name="Layer 10" transform="translate(26.431 0)">
    <path id="Path_153" data-name="Path 153" d="M51.837,5.937H22.468a1.468,1.468,0,0,1,0-2.937H51.837a1.468,1.468,0,1,1,0,2.937Z" transform="translate(-21 -3)"/>
  </g>
  <g id="Layer_48" data-name="Layer 48" transform="translate(0 0)">
    <path id="Path_154" data-name="Path 154" d="M7.405,55.81H83.763a4.405,4.405,0,1,0,0-8.81H7.405a4.405,4.405,0,0,0,0,8.81Z" transform="translate(-3 17.61)"/>
    <path id="Path_155" data-name="Path 155" d="M83.763,55H7.405a4.405,4.405,0,1,0,0,8.81H83.763a4.405,4.405,0,1,0,0-8.81Z" transform="translate(-3 21.357)"/>
    <path id="Path_156" data-name="Path 156" d="M15.971,51.357a1.468,1.468,0,0,0,1.043-.426L32.432,35.513a1.474,1.474,0,1,0-2.085-2.085L14.929,48.846a1.468,1.468,0,0,0,1.043,2.511Z" transform="translate(2.384 11.05)"/>
    <path id="Path_157" data-name="Path 157" d="M37.429,33.429a1.468,1.468,0,0,0,0,2.085L52.847,50.932a1.474,1.474,0,1,0,2.085-2.085L39.514,33.429a1.468,1.468,0,0,0-2.085,0Z" transform="translate(12.923 11.05)"/>
    <path id="Path_158" data-name="Path 158" d="M35.279,48.521a10.279,10.279,0,0,0,2.247-20.308,1.468,1.468,0,0,0-.778-.25v-1.6a8.81,8.81,0,0,0,7.342-8.678V11.81a8.81,8.81,0,1,0-17.621,0v5.874a8.81,8.81,0,0,0,7.342,8.678V28.1a9.075,9.075,0,0,0-1.982.47,1.473,1.473,0,0,0,1.028,2.761,6.946,6.946,0,0,1,2.423-.426,7.342,7.342,0,1,1-7.342,7.342,1.468,1.468,0,1,0-2.937,0A10.279,10.279,0,0,0,35.279,48.521ZM32.342,14.747a2.937,2.937,0,1,1,2.937,2.937A2.937,2.937,0,0,1,32.342,14.747Z" transform="translate(7.305 -3)"/>
  </g>
</svg>
