<svg xmlns="http://www.w3.org/2000/svg" width="110.644" height="101.983" viewBox="0 0 110.644 101.983">
  <g id="Paper" transform="translate(0 1.414)">
    <path id="Path_131" data-name="Path 131" d="M10.873,60.367h1.1V11h-1.1A9.873,9.873,0,0,0,1,20.873V70.24a9.873,9.873,0,0,1,9.873-9.873Z" transform="translate(-1 11.679)"/>
    <path id="Path_132" data-name="Path 132" d="M84.3,74H47v8.776H84.3A4.388,4.388,0,0,0,84.3,74Z" transform="translate(3.463 17.793)"/>
    <rect id="Rectangle_758" data-name="Rectangle 758" width="2.461" height="13.054" transform="translate(42.784 52.942) rotate(-45)"/>
    <rect id="Rectangle_759" data-name="Rectangle 759" width="32.714" height="5.43" transform="translate(51.466 55.042) rotate(-45)"/>
    <rect id="Rectangle_760" data-name="Rectangle 760" width="2.461" height="13.054" transform="translate(70.759 24.968) rotate(-45)"/>
    <rect id="Rectangle_761" data-name="Rectangle 761" width="32.714" height="5.43" transform="translate(46.075 49.651) rotate(-45)"/>
    <path id="Path_133" data-name="Path 133" d="M38.106,40.961l-1.1,8.776A1.1,1.1,0,0,0,38.1,50.97a1.054,1.054,0,0,0,.136-.009l8.776-1.1c.446-.055.643-.317.961-.634L38.74,40C38.422,40.318,38.161,40.516,38.106,40.961Z" transform="translate(2.493 14.493)"/>
    <path id="Path_134" data-name="Path 134" d="M81.892,15.552a1.1,1.1,0,0,0,0-1.551L74.212,6.321a1.1,1.1,0,0,0-1.551,0L68.5,10.482l9.231,9.231Z" transform="translate(5.55 11.194)"/>
    <path id="Path_135" data-name="Path 135" d="M88.569,28h-11.8L52.821,51.947h0a3.471,3.471,0,0,1-2.242,1.26L41.8,54.3a3.174,3.174,0,0,1-.408.026,3.291,3.291,0,0,1-3.265-3.7l1.1-8.774a3.47,3.47,0,0,1,1.26-2.24h0L52.1,28H13.97V60.911H10.679a7.679,7.679,0,0,0,0,15.358H88.569a6.582,6.582,0,0,1,6.582,6.582V34.582A6.582,6.582,0,0,0,88.569,28Z" transform="translate(-0.806 13.329)"/>
    <g id="_4213597_doodle_education_line_ruler_school_icon" data-name="4213597_doodle_education_line_ruler_school_icon" transform="translate(25.598 0)">
      <g id="Layer_2" transform="translate(0 13.374)">
        <g id="Group_91" data-name="Group 91" transform="translate(0 0)">
          <line id="Line_28" data-name="Line 28" x2="4.149" y2="2.079" transform="translate(0 1.035)" fill="none" stroke="#231f20" stroke-linecap="round" stroke-linejoin="round" stroke-miterlimit="10" stroke-width="2"/>
          <line id="Line_29" data-name="Line 29" y1="4.15" x2="2.08" transform="translate(1.034)" fill="none" stroke="#231f20" stroke-linecap="round" stroke-linejoin="round" stroke-miterlimit="10" stroke-width="2"/>
        </g>
        <g id="Group_92" data-name="Group 92" transform="translate(75.491 36.69) rotate(-135)">
          <line id="Line_30" data-name="Line 30" x2="4.15" y2="2.08" transform="translate(0 1.034)" fill="none" stroke="#231f20" stroke-linecap="round" stroke-linejoin="round" stroke-miterlimit="10" stroke-width="2"/>
          <line id="Line_31" data-name="Line 31" y1="4.149" x2="2.079" transform="translate(1.035 0)" fill="none" stroke="#231f20" stroke-linecap="round" stroke-linejoin="round" stroke-miterlimit="10" stroke-width="2"/>
        </g>
        <g id="Group_93" data-name="Group 93" transform="translate(9.262 1.099)">
          <line id="Line_32" data-name="Line 32" x2="2.315" y2="1.16" transform="translate(0 0.578)" fill="none" stroke="#231f20" stroke-linecap="round" stroke-linejoin="round" stroke-miterlimit="10" stroke-width="1"/>
          <line id="Line_33" data-name="Line 33" y1="2.315" x2="1.161" transform="translate(0.577)" fill="none" stroke="#231f20" stroke-linecap="round" stroke-linejoin="round" stroke-miterlimit="10" stroke-width="1"/>
        </g>
        <g id="Group_94" data-name="Group 94" transform="translate(82.868 41.034) rotate(-135)">
          <line id="Line_34" data-name="Line 34" x2="2.315" y2="1.161" transform="translate(0 0.577)" fill="none" stroke="#231f20" stroke-linecap="round" stroke-linejoin="round" stroke-miterlimit="10" stroke-width="1"/>
          <line id="Line_35" data-name="Line 35" y1="2.315" x2="1.161" transform="translate(0.577 0)" fill="none" stroke="#231f20" stroke-linecap="round" stroke-linejoin="round" stroke-miterlimit="10" stroke-width="1"/>
        </g>
      </g>
      <g id="Layer_1" transform="translate(12.515 0)">
        <g id="Group_96" data-name="Group 96" transform="translate(0 0)">
          <rect id="Rectangle_762" data-name="Rectangle 762" width="8.375" height="44.142" transform="translate(31.213 0) rotate(45)" fill="none" stroke="#231f20" stroke-linecap="round" stroke-linejoin="round" stroke-miterlimit="10" stroke-width="2"/>
          <g id="Group_95" data-name="Group 95" transform="translate(5.542 5.331)">
            <line id="Line_36" data-name="Line 36" x2="3.426" y2="3.426" transform="translate(10.328 15.006)" fill="none" stroke="#231f20" stroke-linecap="round" stroke-linejoin="round" stroke-miterlimit="10" stroke-width="2"/>
            <line id="Line_37" data-name="Line 37" x2="2.079" y2="2.079" transform="translate(9.377 18.651)" fill="none" stroke="#231f20" stroke-linecap="round" stroke-linejoin="round" stroke-miterlimit="10" stroke-width="2"/>
            <line id="Line_38" data-name="Line 38" x2="2.078" y2="2.079" transform="translate(7.02 21.008)" fill="none" stroke="#231f20" stroke-linecap="round" stroke-linejoin="round" stroke-miterlimit="10" stroke-width="2"/>
            <line id="Line_39" data-name="Line 39" x2="3.425" y2="3.425" transform="translate(3.307 22.027)" fill="none" stroke="#231f20" stroke-linecap="round" stroke-linejoin="round" stroke-miterlimit="10" stroke-width="2"/>
            <line id="Line_40" data-name="Line 40" x2="2.079" y2="2.079" transform="translate(2.356 25.672)" fill="none" stroke="#231f20" stroke-linecap="round" stroke-linejoin="round" stroke-miterlimit="10" stroke-width="2"/>
            <path id="Path_136" data-name="Path 136" d="M20.077,50.373" transform="translate(-17.999 -20.266)" fill="none" stroke="#231f20" stroke-linecap="round" stroke-linejoin="round" stroke-miterlimit="10" stroke-width="2"/>
            <path id="Path_137" data-name="Path 137" d="M17.814,48.109" transform="translate(-17.814 -20.08)" fill="none" stroke="#231f20" stroke-linecap="round" stroke-linejoin="round" stroke-miterlimit="10" stroke-width="2"/>
            <line id="Line_41" data-name="Line 41" x2="3.426" y2="3.426" transform="translate(24.395 0.938)" fill="none" stroke="#231f20" stroke-linecap="round" stroke-linejoin="round" stroke-miterlimit="10" stroke-width="2"/>
            <path id="Path_138" data-name="Path 138" d="M50.6,19.846" transform="translate(-20.497 -17.768)" fill="none" stroke="#231f20" stroke-linecap="round" stroke-linejoin="round" stroke-miterlimit="10" stroke-width="2"/>
            <path id="Path_139" data-name="Path 139" d="M48.34,17.583" transform="translate(-20.311 -17.583)" fill="none" stroke="#231f20" stroke-linecap="round" stroke-linejoin="round" stroke-miterlimit="10" stroke-width="2"/>
            <line id="Line_42" data-name="Line 42" x2="2.079" y2="2.079" transform="translate(23.444 4.584)" fill="none" stroke="#231f20" stroke-linecap="round" stroke-linejoin="round" stroke-miterlimit="10" stroke-width="2"/>
            <line id="Line_43" data-name="Line 43" x2="2.079" y2="2.078" transform="translate(21.088 6.941)" fill="none" stroke="#231f20" stroke-linecap="round" stroke-linejoin="round" stroke-miterlimit="10" stroke-width="2"/>
            <line id="Line_44" data-name="Line 44" x2="3.426" y2="3.426" transform="translate(17.375 7.959)" fill="none" stroke="#231f20" stroke-linecap="round" stroke-linejoin="round" stroke-miterlimit="10" stroke-width="2"/>
            <line id="Line_45" data-name="Line 45" x2="2.079" y2="2.079" transform="translate(16.424 11.604)" fill="none" stroke="#231f20" stroke-linecap="round" stroke-linejoin="round" stroke-miterlimit="10" stroke-width="2"/>
            <line id="Line_46" data-name="Line 46" x2="2.078" y2="2.078" transform="translate(14.068 13.961)" fill="none" stroke="#231f20" stroke-linecap="round" stroke-linejoin="round" stroke-miterlimit="10" stroke-width="2"/>
          </g>
        </g>
      </g>
    </g>
    <path id="Path_141" data-name="Path 141" d="M8420.4-4576.616s5.891,17.535,20.706,3.383,24.772,0,24.772,0" transform="translate(-8380.697 4643.34)" fill="none" stroke="#fff" stroke-width="3"/>
  </g>
</svg>
