<svg xmlns="http://www.w3.org/2000/svg" width="114.498" height="116.32" viewBox="0 0 114.498 116.32">
  <g id="Group_104" data-name="Group 104" transform="translate(-1190.454 -477.926)">
    <path id="_2006793_social_media_communication_messaging_icon" data-name="2006793_social media_communication_messaging_icon" d="M107.638,61.453a25.778,25.778,0,0,0-18.286-7.619A20.613,20.613,0,0,0,79.7,55.866a38.872,38.872,0,0,0,3.048-15.238,40.128,40.128,0,0,0-80.255,0A40.721,40.721,0,0,0,8.08,60.946L.969,79.232a2.234,2.234,0,0,0,.508,2.54A1.866,1.866,0,0,0,3,82.279H4.017L22.3,74.66a40.721,40.721,0,0,0,20.318,5.587,43.469,43.469,0,0,0,21.334-6.1,20.836,20.836,0,0,0-.508,5.587c0,7.111,2.54,13.715,7.619,18.286a24.3,24.3,0,0,0,11.683,6.6L87.32,115.3a2.722,2.722,0,0,0,2.032,1.524c.508,0,2.032-.508,2.032-1.524l4.572-10.667c4.572-1.016,8.127-3.556,11.683-6.6C117.8,88.375,117.8,71.612,107.638,61.453Zm-3.556,33.524a22.481,22.481,0,0,1-10.159,5.587,1.347,1.347,0,0,0-1.524,1.524l-3.048,6.6-3.048-6.6-1.524-1.524a22.007,22.007,0,0,1-10.159-5.587,20.343,20.343,0,0,1-6.1-14.73c0-5.587,2.032-11.175,6.1-14.73a17.323,17.323,0,0,1,14.222-6.6c5.587,0,11.175,2.032,14.73,6.1A21.01,21.01,0,0,1,104.082,94.978Z" transform="translate(1189.695 477.426)"/>
    <rect id="Rectangle_763" data-name="Rectangle 763" width="24.066" height="3.209" transform="translate(1212.086 503.147)" fill="#fcfcfc"/>
    <rect id="Rectangle_764" data-name="Rectangle 764" width="41.715" height="3.209" transform="translate(1212.086 515.181)" fill="#fcfcfc"/>
    <rect id="Rectangle_765" data-name="Rectangle 765" width="41.715" height="3.61" transform="translate(1212.086 527.214)" fill="#fcfcfc"/>
    <rect id="Rectangle_766" data-name="Rectangle 766" width="3.61" height="3.209" transform="translate(1239.763 503.147)" fill="#fcfcfc"/>
  </g>
</svg>
