<svg xmlns="http://www.w3.org/2000/svg" width="120.318" height="76.22" viewBox="0 0 120.318 76.22">
  <g id="_473798_agreement_business_contract_deal_greeting_icon" data-name="473798_agreement_business_contract_deal_greeting_icon" transform="translate(0 0)">
    <path id="Path_122" data-name="Path 122" d="M112.83,84.949l-11.805-23.67a2.462,2.462,0,0,0-.535-.709,2.236,2.236,0,0,0-.742-.447L85.906,55.148a8.783,8.783,0,0,0-6.134.06l-10.5,4.007a22.409,22.409,0,0,0-2.2.978c-.242.125-.479.26-.716.393a19.514,19.514,0,0,0-2.485-1.13,19.008,19.008,0,0,0-8.307-1.144l-7.066.606a2.157,2.157,0,0,0-.908.292,2.326,2.326,0,0,0-.718.668L30.961,82.528a2.543,2.543,0,0,0-.449,1.683,2.5,2.5,0,0,0,.72,1.57l6.921,6.859a5.618,5.618,0,0,0,4.571,8.294c.08.005.161.005.242.008a5.607,5.607,0,0,0,4.988,7.289,5.619,5.619,0,0,0,5.2,7.747,5.572,5.572,0,0,0,3.973-1.651,5.635,5.635,0,0,0,5.192,4.757c.123.008.25.014.373.014a5.57,5.57,0,0,0,1.95-.357,5.766,5.766,0,0,0,3.448.979,5.891,5.891,0,0,0,3.989-1.822l-3.806-3.8c.009-.088.025-.172.029-.263a5.612,5.612,0,0,0-.275-2.139l7.79,7.77a7.557,7.557,0,0,0,3.167.555,7.838,7.838,0,0,0,5.622-2.773l.78-.9a1.254,1.254,0,0,0,.176-.285L73.571,104.1a.849.849,0,0,1-.06-1.136.714.714,0,0,1,1.058-.023l14.264,14.225a6.625,6.625,0,0,0,2.474.37,6.891,6.891,0,0,0,4.945-2.441l1.884-2.18A2.8,2.8,0,0,0,98.8,111L86.284,98.517a.852.852,0,0,1-.059-1.136.714.714,0,0,1,1.058-.024L99.859,109.9a5.413,5.413,0,0,0,1.615.183,5.633,5.633,0,0,0,4.048-2l.506-.586a6.588,6.588,0,0,0-.308-8.837l-3.357-3.347.848.845,9.078-8.2a2.458,2.458,0,0,0,.768-1.4A2.591,2.591,0,0,0,112.83,84.949ZM42.882,98.507a3.195,3.195,0,0,1,.205-6.383c.071,0,.143,0,.214.006a3.2,3.2,0,1,1-.419,6.377Zm5.443,7.309a3.194,3.194,0,0,1-2.355-5.354c.061-.063,1.307-1.382,1.905-2.011l.314-.334a3.195,3.195,0,1,1,4.642,4.391l-.889.94-.6.636c-.033.037-.07.075-.1.109l-.4.419c-.061.066-.122.131-.184.195-.016.016-.028.03-.029.032A3.163,3.163,0,0,1,48.324,105.817Zm7.133,6.753a3.194,3.194,0,0,1-4.5.1A3.2,3.2,0,0,1,50.8,108.2c.028-.03.76-.8,1.589-1.68h0l.616-.65c1.079-1.142,1.432-1.513,1.551-1.642a.533.533,0,0,0,.042-.041h0l0,0c.1-.113.165-.175.167-.177A3.195,3.195,0,1,1,59.4,108.4Zm7.024,4.091a3.2,3.2,0,0,1,.2-6.384c.071,0,.143,0,.214.007a3.2,3.2,0,0,1-.418,6.377ZM101.54,94.492,76.674,69.7h0l.28-.708a1.359,1.359,0,0,0-.086-1.172,1.169,1.169,0,0,0-.942-.6l-1.848-.111h0l-2.019-.12-.153,2.393a27.812,27.812,0,0,1-3.177,10.409c-2.845,5.046-6.614,6.785-7.189,6.9a10.554,10.554,0,0,1-1.875.243,2.19,2.19,0,0,1-.934-.17l-.944-.437a1.667,1.667,0,0,1-.857-.95,1.83,1.83,0,0,1,0-1.281l9.458-20.756L68,62.279l.648-.247h0L80.529,57.5a6.685,6.685,0,0,1,2.325-.441h.066a6.677,6.677,0,0,1,2.267.4l13.843,4.975L110.835,86.1Z" transform="translate(-12.152 -43.811)"/>
    <path id="Path_123" data-name="Path 123" d="M162.606,40.557l-9.345,4.659a5.876,5.876,0,0,0-2.636,7.88l12.236,24.53a5.877,5.877,0,0,0,7.878,2.634l9.343-4.662Zm8.109,35.056a2.251,2.251,0,1,1,2.253-2.249A2.251,2.251,0,0,1,170.715,75.613Z" transform="translate(-59.764 -38.207)"/>
    <path id="Path_124" data-name="Path 124" d="M0,68.693l8.544,6a5.874,5.874,0,0,0,8.182-1.429L32.483,50.835a5.874,5.874,0,0,0-1.428-8.184l-8.545-6Zm7.369-1.151A2.251,2.251,0,1,1,9.26,70.1,2.252,2.252,0,0,1,7.369,67.542Z" transform="translate(0 -36.65)"/>
  </g>
</svg>
