<svg id="Interface-Solid" xmlns="http://www.w3.org/2000/svg" width="104.774" height="112.258" viewBox="0 0 104.774 112.258">
  <g id="work-business-solid-idea">
    <path id="Path_159" data-name="Path 159" d="M33.193,7A26.224,26.224,0,0,0,7,33.193a3.742,3.742,0,0,0,7.484,0,18.732,18.732,0,0,1,18.71-18.71,3.742,3.742,0,0,0,0-7.484Z" transform="translate(19.193 19.193)" fill="none"/>
    <path id="Path_160" data-name="Path 160" d="M36.193,25H13.742a3.742,3.742,0,0,0,0,7.484H36.193a3.742,3.742,0,0,0,0-7.484Z" transform="translate(27.419 68.548)"/>
    <path id="Path_161" data-name="Path 161" d="M36.193,28H13.742a3.742,3.742,0,0,0,0,7.484H36.193a3.742,3.742,0,0,0,0-7.484Z" transform="translate(27.419 76.774)"/>
    <path id="Path_162" data-name="Path 162" d="M16.742,14.968a3.741,3.741,0,0,0,3.742-3.742V3.742a3.742,3.742,0,1,0-7.484,0v7.484A3.741,3.741,0,0,0,16.742,14.968Z" transform="translate(35.645)"/>
    <path id="Path_163" data-name="Path 163" d="M11.226,13H3.742a3.742,3.742,0,1,0,0,7.484h7.484a3.742,3.742,0,1,0,0-7.484Z" transform="translate(0 35.645)"/>
    <path id="Path_164" data-name="Path 164" d="M15.5,15.5a3.741,3.741,0,0,0,0-5.291L9.887,4.6A3.741,3.741,0,1,0,4.6,9.887L10.209,15.5a3.741,3.741,0,0,0,5.291,0Z" transform="translate(9.597 9.597)"/>
    <path id="Path_165" data-name="Path 165" d="M35.226,13H27.742a3.742,3.742,0,1,0,0,7.484h7.484a3.742,3.742,0,0,0,0-7.484Z" transform="translate(65.806 35.645)"/>
    <path id="Path_166" data-name="Path 166" d="M32.5,4.6a3.741,3.741,0,0,0-5.291,0L21.6,10.209A3.741,3.741,0,1,0,26.887,15.5L32.5,9.887a3.741,3.741,0,0,0,0-5.291Z" transform="translate(56.21 9.597)"/>
    <path id="Path_167" data-name="Path 167" d="M37.308,5.333A31.812,31.812,0,0,0,21.094,64.512V71.44a3.741,3.741,0,0,0,3.742,3.742H49.78a3.741,3.741,0,0,0,3.742-3.742V64.512A31.812,31.812,0,0,0,37.308,5.334Zm0,13.72A18.732,18.732,0,0,0,18.6,37.763a3.742,3.742,0,1,1-7.484,0A26.224,26.224,0,0,1,37.308,11.569a3.742,3.742,0,0,1,0,7.484Z" transform="translate(15.079 14.624)"/>
  </g>
</svg>
