<svg xmlns="http://www.w3.org/2000/svg" width="101.795" height="91.976" viewBox="0 0 101.795 91.976">
  <g id="_4042265_control_diet_dieting_healthy_life_measurement_icon" data-name="4042265_control_diet_dieting_healthy life_measurement_icon" transform="translate(-8.483 -5.737)">
    <path id="Path_94" data-name="Path 94" d="M338.8,103.215v75.58h34.783V103.215S338.867,103.168,338.8,103.215Zm32.188,73.2H341.4V105.592H370.99Z" transform="translate(-263.308 -97.457)"/>
    <path id="Path_100" data-name="Path 100" d="M87.091,401.057V395.3a3.7,3.7,0,0,0-3.694-3.693H63v2.171H83.4a1.523,1.523,0,0,1,0,3.047H79.275l-.222.006-.017.007a3.694,3.694,0,0,0-2.973,1.834,3.658,3.658,0,0,0-.41,1.064H64.9v-2.979H62.732v2.979H52.068v-2.979H49.9v2.979H39.279v-2.979H37.108v2.979H26.491V393.78H59.47v-2.171H24.32v10.3H75.566V407a5.351,5.351,0,0,0,5.345,5.345h42.752v-10.3H86.929A3.148,3.148,0,0,0,87.091,401.057Zm-9.149-1.294A1.524,1.524,0,0,1,79.259,399L83.4,399a3.677,3.677,0,0,0,1.523-.331v2.391a.993.993,0,0,1-.992.992H79.26a1.524,1.524,0,0,1-1.318-2.287Zm43.551,4.457v5.958h-9.311V407.2h-2.171v2.979H100.7V407.2H98.53v2.979H89.39V407.2H87.219v2.979H80.911A3.178,3.178,0,0,1,77.737,407v-3.114a3.678,3.678,0,0,0,1.523.33h42.233Z" transform="translate(-14.588 -314.635)"/>
    <path id="Path_101" data-name="Path 101" d="M398.13,128.41H373.038v8.566H398.13Zm-2.6,5.97h-19.9v-3.374h19.9Z" transform="translate(-293.989 -118.296)"/>
    <rect id="Rectangle_743" data-name="Rectangle 743" width="14.709" height="2.596" transform="translate(80.347 42.1)"/>
    <rect id="Rectangle_744" data-name="Rectangle 744" width="22.497" height="2.596" transform="translate(80.347 36.716)"/>
    <rect id="Rectangle_745" data-name="Rectangle 745" width="22.497" height="2.596" transform="translate(80.347 25.949)"/>
    <rect id="Rectangle_746" data-name="Rectangle 746" width="4.142" height="2.596" transform="translate(98.701 31.332)"/>
    <rect id="Rectangle_747" data-name="Rectangle 747" width="15.24" height="2.596" transform="translate(80.347 31.332)"/>
    <rect id="Rectangle_748" data-name="Rectangle 748" width="16.083" height="2.596" transform="translate(86.761 20.565)"/>
    <rect id="Rectangle_749" data-name="Rectangle 749" width="3.645" height="2.596" transform="translate(82.691 20.565)"/>
    <path id="Path_102" data-name="Path 102" d="M385.7,299.073h-2.6v3.017h-7.472v-7.472h6.057v-2.6h-8.653v12.664H385.7Z" transform="translate(-293.989 -244.116)"/>
    <path id="Path_103" data-name="Path 103" d="M388.55,292.243l-2-2-1.835,1.835,3.839,3.839L398,286.459l-1.835-1.835Z" transform="translate(-302.633 -238.361)"/>
    <path id="Path_104" data-name="Path 104" d="M385.7,369.289h-2.6V372.3h-7.472v-7.472h6.057v-2.6h-8.653V374.9H385.7Z" transform="translate(-293.989 -297.927)"/>
    <path id="Path_105" data-name="Path 105" d="M386.546,360.457l-1.835,1.835,3.839,3.839L398,356.676l-1.835-1.835-7.619,7.619Z" transform="translate(-302.633 -292.137)"/>
    <path id="path1891" d="M-178.97-176.753h-60.573l31-21.3Zm-36.774,28.093h-16.02v-28.093h44.472v28.093h-16.02m-12.433-.033v-13.491h12.433v13.491" transform="translate(249.276 216.73)" fill="none" stroke="#000" stroke-linecap="round" stroke-linejoin="round" stroke-width="2.5"/>
  </g>
</svg>
