<svg id="_3339034_business_tools_receipt_page_print_ticket_icon" data-name="3339034_business tools_receipt_page_print_ticket_icon" xmlns="http://www.w3.org/2000/svg" width="87.338" height="86.485" viewBox="0 0 87.338 86.485">
  <path id="Path_142" data-name="Path 142" d="M87.338,6.116A5.828,5.828,0,0,0,81.515.293H5.823A5.81,5.81,0,0,0,4.367,11.731V82.411l4.367-4.367,8.734,8.734L26.2,78.044l8.734,8.734,8.734-8.734L52.4,86.778l8.734-8.734,8.734,8.734L78.6,78.044l4.367,4.367V11.731A5.816,5.816,0,0,0,87.338,6.116ZM80.06,75.383,78.6,73.927,69.87,82.661l-8.734-8.734L52.4,82.661l-8.734-8.734-8.734,8.734L26.2,73.927l-8.734,8.734L8.734,73.927,7.278,75.383V7.571H80.06V75.383ZM82.971,8.635V4.66H4.367V8.635A2.91,2.91,0,0,1,5.823,3.2H81.515a2.91,2.91,0,0,1,1.456,5.431Z" transform="translate(0 -0.293)"/>
  <path id="Path_143" data-name="Path 143" d="M51.29,40.293H29.456a1.456,1.456,0,1,0,0,2.911H51.29a1.456,1.456,0,1,0,0-2.911Z" transform="translate(12.758 17.932)"/>
  <path id="Path_144" data-name="Path 144" d="M48.422,40.709A1.5,1.5,0,0,0,48,41.743a1.456,1.456,0,1,0,2.911,0,1.5,1.5,0,0,0-.422-1.033A1.524,1.524,0,0,0,48.422,40.709Z" transform="translate(21.87 17.938)"/>
  <path id="Path_145" data-name="Path 145" d="M56.29,26.293H34.456a1.456,1.456,0,0,0,0,2.911H56.29a1.456,1.456,0,1,0,0-2.911Z" transform="translate(15.036 11.553)"/>
  <path id="Path_146" data-name="Path 146" d="M54.012,33.293H39.456a1.456,1.456,0,0,0,0,2.911H54.012a1.456,1.456,0,1,0,0-2.911Z" transform="translate(17.314 14.743)"/>
  <path id="Path_147" data-name="Path 147" d="M28,34.749A1.455,1.455,0,0,0,29.456,36.2h2.911a1.456,1.456,0,0,0,0-2.911H29.456A1.455,1.455,0,0,0,28,34.749Z" transform="translate(12.758 14.743)"/>
  <path id="Path_148" data-name="Path 148" d="M52.746,20.749a1.455,1.455,0,0,0-1.456-1.456H29.456a1.456,1.456,0,1,0,0,2.911H51.29A1.455,1.455,0,0,0,52.746,20.749Z" transform="translate(12.758 8.364)"/>
  <path id="Path_149" data-name="Path 149" d="M48.422,19.709A1.5,1.5,0,0,0,48,20.743,1.442,1.442,0,0,0,49.456,22.2a1.5,1.5,0,0,0,1.033-.422,1.462,1.462,0,0,0-2.067-2.067Z" transform="translate(21.87 8.37)"/>
  <path id="Path_150" data-name="Path 150" d="M31.489,28.776a1.476,1.476,0,0,0,0-2.067,1.524,1.524,0,0,0-2.067,0,1.476,1.476,0,0,0,0,2.067,1.476,1.476,0,0,0,2.067,0Z" transform="translate(13.213 11.559)"/>
  <path id="Path_151" data-name="Path 151" d="M36.489,35.776a1.5,1.5,0,0,0,.422-1.033,1.474,1.474,0,0,0-.422-1.033,1.456,1.456,0,1,0,0,2.067Z" transform="translate(15.491 14.748)"/>
  <path id="Path_152" data-name="Path 152" d="M19.734,22.351v-1.6a1.456,1.456,0,0,0-2.911,0v1.607a7.257,7.257,0,0,0-4.1,2.428,5,5,0,0,0-1.156,3.789A5.312,5.312,0,0,0,13.578,32.2l3.245,2.524v7.916a4.361,4.361,0,0,1-2.911-4.1,1.456,1.456,0,1,0-2.911,0,7.292,7.292,0,0,0,5.823,7.131v1.278a1.456,1.456,0,1,0,2.911,0V45.665a7.265,7.265,0,0,0,4.1-2.428,5.014,5.014,0,0,0,1.154-3.792,5.308,5.308,0,0,0-2.013-3.622L19.734,33.3V25.385a4.361,4.361,0,0,1,2.911,4.1,1.456,1.456,0,0,0,2.911,0A7.292,7.292,0,0,0,19.734,22.351Zm1.457,15.77a2.39,2.39,0,0,1,.905,1.627,2.12,2.12,0,0,1-.482,1.608,4.349,4.349,0,0,1-1.881,1.274V36.986ZM15.365,29.9a2.391,2.391,0,0,1-.905-1.63,2.126,2.126,0,0,1,.482-1.607,4.349,4.349,0,0,1,1.881-1.274v5.643Z" transform="translate(5.012 8.364)"/>
  <circle id="Ellipse_81" data-name="Ellipse 81" cx="1.617" cy="1.617" r="1.617" transform="translate(56.608 14.177)"/>
  <circle id="Ellipse_82" data-name="Ellipse 82" cx="1.617" cy="1.617" r="1.617" transform="translate(50.947 14.177)"/>
  <circle id="Ellipse_83" data-name="Ellipse 83" cx="1.617" cy="1.617" r="1.617" transform="translate(62.269 14.177)"/>
  <ellipse id="Ellipse_84" data-name="Ellipse 84" cx="1.213" cy="1.617" rx="1.213" ry="1.617" transform="translate(45.286 14.177)"/>
  <ellipse id="Ellipse_85" data-name="Ellipse 85" cx="1.213" cy="1.617" rx="1.213" ry="1.617" transform="translate(68.738 14.177)"/>
  <circle id="Ellipse_86" data-name="Ellipse 86" cx="1.617" cy="1.617" r="1.617" transform="translate(27.495 14.177)"/>
  <circle id="Ellipse_87" data-name="Ellipse 87" cx="1.617" cy="1.617" r="1.617" transform="translate(33.156 14.177)"/>
  <ellipse id="Ellipse_88" data-name="Ellipse 88" cx="1.213" cy="1.617" rx="1.213" ry="1.617" transform="translate(39.625 14.177)"/>
  <ellipse id="Ellipse_89" data-name="Ellipse 89" cx="1.213" cy="1.617" rx="1.213" ry="1.617" transform="translate(74.399 14.177)"/>
  <circle id="Ellipse_90" data-name="Ellipse 90" cx="1.617" cy="1.617" r="1.617" transform="translate(21.834 14.177)"/>
  <ellipse id="Ellipse_91" data-name="Ellipse 91" cx="1.213" cy="1.617" rx="1.213" ry="1.617" transform="translate(16.174 14.177)"/>
  <ellipse id="Ellipse_92" data-name="Ellipse 92" cx="1.213" cy="1.617" rx="1.213" ry="1.617" transform="translate(10.513 14.177)"/>
</svg>
