<svg id="share" xmlns="http://www.w3.org/2000/svg" width="23.264" height="23.264" viewBox="0 0 23.264 23.264">
  <path id="Path_76" data-name="Path 76" d="M20.475,13.65a1.364,1.364,0,0,0-1.365,1.365V19.11H2.73V2.73H6.825a1.365,1.365,0,0,0,0-2.73H1.365A1.364,1.364,0,0,0,0,1.365v19.11A1.364,1.364,0,0,0,1.365,21.84h19.11a1.364,1.364,0,0,0,1.365-1.365v-5.46a1.364,1.364,0,0,0-1.365-1.365Z" transform="translate(0 1.424)" fill="#272c32"/>
  <path id="Path_77" data-name="Path 77" d="M49.148,0H43.3a1.461,1.461,0,0,0,0,2.922h2.317l-9.193,9.193a1.461,1.461,0,0,0,2.066,2.066l9.193-9.193V7.3a1.461,1.461,0,1,0,2.922,0V1.461A1.46,1.46,0,0,0,49.148,0Z" transform="translate(-27.344 0)" fill="#272c32"/>
</svg>
