<svg id="youtube" xmlns="http://www.w3.org/2000/svg" width="22" height="22" viewBox="0 0 22 22">
  <g id="_2515845_black_and_white_dark_grey_facebook_icon" data-name="2515845_black and white_dark grey_facebook_icon" transform="translate(-14.7 -14.55)" fill="#272c32">
    <path d="M 21.35553550720215 32.54999542236328 C 21.1378059387207 32.54999542236328 20.91317558288574 32.54692840576172 20.67535591125488 32.54366683959961 C 20.48266410827637 32.54103469848633 20.2899341583252 32.53843688964844 20.09706497192383 32.53725814819336 C 19.71031761169434 32.53506088256836 19.39956855773926 32.49595642089844 19.1466236114502 32.41774368286133 C 19.11720275878906 32.40676879882812 19.08988761901855 32.39131164550781 19.06528472900391 32.3717155456543 L 19.04396438598633 32.354736328125 L 19.02241516113281 32.33804702758789 C 18.93860816955566 32.27314758300781 18.86870384216309 32.18941497802734 18.81990432739258 32.09555435180664 C 18.81097221374512 32.07027053833008 18.7817211151123 31.97723770141602 18.7429141998291 31.74914741516113 C 18.71737480163574 31.59890747070312 18.70987510681152 31.29768562316895 18.70261573791504 31.00637626647949 L 18.70003128051758 30.90538215637207 L 18.70747566223145 20.13458633422852 C 18.70792579650879 19.7942066192627 18.71847534179688 19.36313629150391 18.79661560058594 19.07137680053711 C 18.81942558288574 18.98660659790039 18.86653518676758 18.90444564819336 18.93159484863281 18.8383674621582 L 18.95235443115234 18.81728744506836 L 18.9727954864502 18.79590606689453 C 19.02481842041016 18.74148941040039 19.08835601806641 18.69766998291016 19.1578197479248 18.66812515258789 C 19.27370834350586 18.6308422088623 19.39348030090332 18.60549163818359 19.51449584960938 18.59266662597656 L 19.55051422119141 18.58884620666504 L 19.58646583557129 18.58437728881836 C 19.70305442810059 18.56987571716309 19.93374443054199 18.56664657592773 20.15684509277344 18.56351661682129 C 20.23076438903809 18.56247711181641 20.30468559265137 18.56142616271973 20.37857437133789 18.56006622314453 L 20.9223690032959 18.55000686645508 L 29.08861541748047 18.55000686645508 L 29.0986442565918 18.5633659362793 L 31.10063552856445 18.56074714660645 L 31.11972427368164 18.56072616577148 C 31.43055534362793 18.56072616577148 31.87736511230469 18.56978607177734 32.16782379150391 18.6480770111084 C 32.26186370849609 18.67331695556641 32.34433364868164 18.72031593322754 32.41061401367188 18.78515625 L 32.42243576049805 18.79672622680664 L 32.43434524536133 18.80818748474121 C 32.49138641357422 18.86306953430176 32.53920364379883 18.92610359191895 32.57658004760742 18.99564933776855 C 32.58511734008789 19.02060699462891 32.6071662902832 19.09271430969238 32.63720321655273 19.24716186523438 C 32.66411209106445 19.40012741088867 32.67801284790039 19.55623245239258 32.67851638793945 19.71140670776367 L 32.67857360839844 19.73061561584473 L 32.67867660522461 19.73855209350586 C 32.68021774291992 20.05823707580566 32.6893310546875 25.04910659790039 32.69478607177734 28.04288673400879 C 32.69884490966797 30.2668514251709 32.69968414306641 30.71979331970215 32.69999694824219 30.82620239257812 L 32.69999694824219 30.82595634460449 L 32.69999694824219 30.9332447052002 C 32.69631195068359 31.26448440551758 32.68254470825195 31.67724227905273 32.61314392089844 31.97647666931152 C 32.58816528320312 32.08437728881836 32.55590438842773 32.1777458190918 32.3871955871582 32.32819747924805 L 32.38248443603516 32.3323860168457 L 32.3777961730957 32.33659744262695 C 32.31233596801758 32.39533615112305 32.23183441162109 32.43447494506836 32.14500427246094 32.44977569580078 L 32.11487579345703 32.45508575439453 L 32.08483505249023 32.46085739135742 C 31.87546920776367 32.50105285644531 31.66130638122559 32.52423477172852 31.44798278808594 32.52981567382812 C 30.80200386047363 32.53758239746094 30.1481819152832 32.54322814941406 29.50277709960938 32.54661178588867 C 29.48955917358398 32.54632949829102 29.47504615783691 32.54606246948242 29.45927429199219 32.54583740234375 C 29.42614555358887 32.54534530639648 29.37762451171875 32.54490661621094 29.3160457611084 32.54460525512695 C 29.22146415710449 32.54414749145508 29.08673477172852 32.5439453125 28.92611503601074 32.5439453125 C 28.09226989746094 32.5439453125 26.56488227844238 32.54929351806641 26.42273902893066 32.54979705810547 C 25.8741283416748 32.54978942871094 25.32557678222656 32.54901504516602 24.77706527709961 32.54824829101562 C 24.22287559509277 32.54745483398438 23.66870498657227 32.54667663574219 23.11449432373047 32.54667663574219 C 22.48935508728027 32.54667663574219 21.94178581237793 32.5477180480957 21.44047546386719 32.54983520507812 L 21.35553550720215 32.54999542236328 Z" stroke="none"/>
    <path d="M 22.70884323120117 22.55000305175781 L 22.71224975585938 28.54743766784668 L 23.11449432373047 28.54668045043945 L 26.40000534057617 28.54984855651855 L 28.69575119018555 28.54448318481445 L 28.68411636352539 22.55206871032715 L 22.70884323120117 22.55000305175781 M 20.30459594726562 14.55000305175781 L 31.09119415283203 14.55000305175781 C 31.09159469604492 14.55390167236328 31.09305000305176 14.55761337280273 31.09540557861328 14.56074905395508 C 31.80664825439453 14.55979537963867 32.51560974121094 14.59906005859375 33.2088737487793 14.78592681884766 C 33.96207427978516 14.98805999755859 34.65049743652344 15.38063812255859 35.20780563354492 15.92583847045898 C 35.5767822265625 16.28086853027344 35.88601684570312 16.69308090209961 36.12359619140625 17.14656829833984 C 36.35170745849609 17.57683563232422 36.47933959960938 18.04074859619141 36.57003021240234 18.51679229736328 C 36.64089584350586 18.90666961669922 36.67719268798828 19.30203628540039 36.67848205566406 19.69828033447266 C 36.68036270141602 19.84263610839844 36.69952774047852 30.77597045898438 36.69999694824219 30.82595825195312 L 36.69999694824219 30.95489120483398 C 36.69345092773438 31.60100364685059 36.65697479248047 32.2452392578125 36.50972747802734 32.88013458251953 C 36.28487396240234 33.85139465332031 35.78701782226562 34.65586853027344 35.0493278503418 35.31365966796875 C 34.42765045166016 35.87154769897461 33.66194152832031 36.24411392211914 32.83908462524414 36.38909149169922 C 32.40389251708984 36.47266006469727 31.96245002746582 36.51952362060547 31.51940536499023 36.52924728393555 C 30.82503890991211 36.53764724731445 30.13084030151367 36.54357147216797 29.4367847442627 36.54700469970703 C 29.51798248291016 36.53875732421875 26.42856216430664 36.54978942871094 26.42856216430664 36.5497932434082 C 24.7713508605957 36.5497932434082 23.11461448669434 36.54278945922852 21.45739555358887 36.5497932434082 C 20.99550247192383 36.55166244506836 20.53459358215332 36.53999328613281 20.07272911071777 36.53718185424805 C 19.33270645141602 36.53298187255859 18.60343933105469 36.44562530517578 17.8966178894043 36.21763610839844 C 17.41668319702148 36.05829238891602 16.96866226196289 35.81552505493164 16.57318496704102 35.50052642822266 C 16.01921844482422 35.07149124145508 15.5673713684082 34.52501678466797 15.25021743774414 33.90044784545898 C 15.01180648803711 33.4342041015625 14.88698577880859 32.93386077880859 14.7995719909668 32.41996002197266 C 14.7172966003418 31.93597030639648 14.71308517456055 31.4431037902832 14.69999313354492 30.95489120483398 L 14.70747375488281 20.13182640075684 C 14.70841598510742 19.42544746398926 14.74860763549805 18.72422409057617 14.93279647827148 18.03653717041016 C 15.13624954223633 17.28050231933594 15.53192901611328 16.58991622924805 16.08139419555664 16.03189086914062 C 16.56073760986328 15.53046035766602 17.14833831787109 15.14504623413086 17.79938507080078 14.90505981445312 C 18.21797180175781 14.75902557373047 18.65200805664062 14.66167068481445 19.0928955078125 14.61493682861328 C 19.49492835998535 14.56494903564453 19.90022850036621 14.5682258605957 20.30459594726562 14.56074905395508 C 20.30459594726562 14.55747985839844 20.30459594726562 14.55373764038086 20.30459594726562 14.55000305175781 Z" stroke="none" fill="#272c32"/>
  </g>
  <g id="_104482_youtube_icon" data-name="104482_youtube_icon" transform="translate(2.163 2.357)">
    <path id="Path_83" data-name="Path 83" d="M18.269,28.21H7.051a3.182,3.182,0,0,0-3.228,3.132v2.517a3.182,3.182,0,0,0,3.228,3.132H18.269A3.182,3.182,0,0,0,21.5,33.859V31.342A3.182,3.182,0,0,0,18.269,28.21ZM9.408,30.169H8.365V35.2H7.358V30.169H6.316v-.855H9.408ZM12.354,35.2H11.46V34.72a1.9,1.9,0,0,1-.516.4,1.1,1.1,0,0,1-.519.138.564.564,0,0,1-.467-.194.915.915,0,0,1-.157-.582V30.857h.894v3.329a.363.363,0,0,0,.055.222.223.223,0,0,0,.184.069.518.518,0,0,0,.249-.091,1.2,1.2,0,0,0,.277-.233v-3.3h.894Zm3.245-.9a1.059,1.059,0,0,1-.21.706.754.754,0,0,1-.608.245,1.093,1.093,0,0,1-.468-.094,1.144,1.144,0,0,1-.382-.294V35.2h-.9V29.314h.9v1.894a1.388,1.388,0,0,1,.383-.3.9.9,0,0,1,.413-.1.782.782,0,0,1,.648.276,1.264,1.264,0,0,1,.224.811V34.3Zm3.1-1.169h-1.71v.818a.922.922,0,0,0,.087.475.338.338,0,0,0,.3.132.376.376,0,0,0,.311-.112.913.913,0,0,0,.089-.495v-.2h.92v.223a1.187,1.187,0,0,1-1.34,1.341,1.253,1.253,0,0,1-.947-.357,1.36,1.36,0,0,1-.346-.984V32.025a1.205,1.205,0,0,1,.381-.92,1.372,1.372,0,0,1,.978-.355A1.15,1.15,0,0,1,18.7,32.024Z" transform="translate(-3.823 -19.706)" fill="#fff"/>
    <path id="Path_84" data-name="Path 84" d="M40.745,37.646a.344.344,0,0,0-.3.12.632.632,0,0,0-.09.389v.439h.767v-.439a.635.635,0,0,0-.092-.389A.332.332,0,0,0,40.745,37.646Z" transform="translate(-27.174 -25.993)" fill="#fff"/>
    <path id="Path_85" data-name="Path 85" d="M32.234,37.6a.427.427,0,0,0-.184.042.621.621,0,0,0-.179.133v2.7a.74.74,0,0,0,.206.154.51.51,0,0,0,.21.046.282.282,0,0,0,.234-.093.476.476,0,0,0,.074-.3V38.05a.519.519,0,0,0-.091-.334A.336.336,0,0,0,32.234,37.6Z" transform="translate(-21.751 -25.817)" fill="#fff"/>
    <path id="Path_86" data-name="Path 86" d="M14.422,11.84h1.1V9.152L16.8,5.36H15.683L15,7.95h-.069L14.22,5.36H13.113l1.309,3.913Z" transform="translate(-9.738 -5.36)" fill="#fff"/>
    <path id="Path_87" data-name="Path 87" d="M25.3,14.9a1.488,1.488,0,0,0,1.046-.349,1.246,1.246,0,0,0,.378-.962V11.119a1.15,1.15,0,0,0-.386-.894,1.439,1.439,0,0,0-.994-.346,1.6,1.6,0,0,0-1.06.329,1.093,1.093,0,0,0-.394.885v2.477a1.266,1.266,0,0,0,.384.969A1.44,1.44,0,0,0,25.3,14.9Zm-.4-3.844A.325.325,0,0,1,25,10.8a.433.433,0,0,1,.292-.1.483.483,0,0,1,.313.1.313.313,0,0,1,.119.253v2.6a.393.393,0,0,1-.117.3.44.44,0,0,1-.315.109.392.392,0,0,1-.3-.108.42.42,0,0,1-.1-.3v-2.6Z" transform="translate(-16.615 -8.299)" fill="#fff"/>
    <path id="Path_88" data-name="Path 88" d="M34.946,15.073a1.228,1.228,0,0,0,.566-.153,2.07,2.07,0,0,0,.562-.446V15h.976v-4.78h-.976v3.628a1.351,1.351,0,0,1-.3.257.566.566,0,0,1-.273.1.235.235,0,0,1-.2-.077.391.391,0,0,1-.063-.244V10.224h-.975v3.995a1.008,1.008,0,0,0,.171.639A.615.615,0,0,0,34.946,15.073Z" transform="translate(-23.231 -8.524)" fill="#fff"/>
  </g>
</svg>
